<svg xmlns="http://www.w3.org/2000/svg" viewBox="0 0 800 620" role="img" aria-labelledby="title">
  <title id="title">Controller product placeholder</title>
  <rect width="800" height="620" fill="#f4f4f4"/>
  <path d="M208 312c18-85 76-124 161-98l31 10 31-10c85-26 143 13 161 98l25 119c12 57-45 101-92 68l-59-41H334l-59 41c-47 33-104-11-92-68l25-119z" fill="#ffffff" stroke="#111111" stroke-width="14"/>
  <circle cx="307" cy="348" r="20" fill="#111111"/>
  <circle cx="493" cy="348" r="20" fill="#111111"/>
  <path d="M355 319h90" stroke="#111111" stroke-width="14" stroke-linecap="round"/>
  <path d="M400 274v80" stroke="#111111" stroke-width="14" stroke-linecap="round"/>
  <circle cx="548" cy="293" r="12" fill="#111111"/>
  <circle cx="579" cy="324" r="12" fill="#111111"/>
  <circle cx="517" cy="324" r="12" fill="#111111"/>
  <circle cx="548" cy="355" r="12" fill="#111111"/>
</svg>
