<svg xmlns="http://www.w3.org/2000/svg" viewBox="0 0 800 1000" role="img" aria-labelledby="title desc">
  <title id="title">Ava Bennett portrait</title>
  <desc id="desc">Stylized team portrait on a neutral studio background.</desc>
  <defs>
    <linearGradient id="bg" x1="0" y1="0" x2="1" y2="1">
      <stop offset="0" stop-color="#b6ada4"/>
      <stop offset="1" stop-color="#766f68"/>
    </linearGradient>
    <linearGradient id="hair" x1="0" y1="0" x2="1" y2="1">
      <stop offset="0" stop-color="#cba36b"/>
      <stop offset="1" stop-color="#50351f"/>
    </linearGradient>
    <linearGradient id="skin" x1="0" y1="0" x2="0" y2="1">
      <stop offset="0" stop-color="#ecc09e"/>
      <stop offset="1" stop-color="#bd7d5e"/>
    </linearGradient>
  </defs>
  <rect width="800" height="1000" fill="url(#bg)"/>
  <path d="M206 699c-16-191 8-338 80-423 73-86 199-89 272-7 70 79 92 242 33 430H206Z" fill="url(#hair)"/>
  <circle cx="400" cy="380" r="132" fill="url(#skin)"/>
  <path d="M168 1000c18-219 102-346 232-346s214 127 232 346H168Z" fill="#0d0e10"/>
  <path d="M291 1000V746h218v254H291Z" fill="#f7f3ed"/>
  <path d="M323 456c35 45 119 45 154 0" fill="none" stroke="#895540" stroke-width="14" stroke-linecap="round"/>
  <circle cx="349" cy="374" r="12" fill="#1c1715"/>
  <circle cx="451" cy="374" r="12" fill="#1c1715"/>
</svg>
