<svg xmlns="http://www.w3.org/2000/svg" viewBox="0 0 800 1000" role="img" aria-labelledby="title desc">
  <title id="title">Madison Clarke portrait</title>
  <desc id="desc">Stylized team portrait on a neutral studio background.</desc>
  <defs>
    <linearGradient id="bg" x1="0" y1="0" x2="1" y2="1">
      <stop offset="0" stop-color="#c9beb0"/>
      <stop offset="1" stop-color="#8f8378"/>
    </linearGradient>
    <linearGradient id="hair" x1="0" y1="0" x2="1" y2="1">
      <stop offset="0" stop-color="#d6b275"/>
      <stop offset="1" stop-color="#684321"/>
    </linearGradient>
    <linearGradient id="skin" x1="0" y1="0" x2="0" y2="1">
      <stop offset="0" stop-color="#efc4a0"/>
      <stop offset="1" stop-color="#c78562"/>
    </linearGradient>
  </defs>
  <rect width="800" height="1000" fill="url(#bg)"/>
  <path d="M220 643c-24-143-8-293 72-381 64-70 167-80 239-25 87 66 104 233 48 406H220Z" fill="url(#hair)"/>
  <circle cx="400" cy="369" r="137" fill="url(#skin)"/>
  <path d="M178 1000c16-224 103-349 222-349s206 125 222 349H178Z" fill="#0f1012"/>
  <path d="M296 1000V721h208v279H296Z" fill="#f6f2eb"/>
  <path d="M322 447c37 46 119 46 156 0" fill="none" stroke="#87513f" stroke-width="14" stroke-linecap="round"/>
  <circle cx="348" cy="361" r="12" fill="#1f1916"/>
  <circle cx="452" cy="361" r="12" fill="#1f1916"/>
</svg>
